<svg width="21" height="20" viewBox="0 0 21 20" fill="none" xmlns="http://www.w3.org/2000/svg">
<path d="M18.1905 0H2.80949C1.25789 0 0 1.25789 0 2.80949V11.9381C0 13.4897 1.25789 14.7476 2.80949 14.7476H8.24158L10.0898 19.1013C10.0898 19.1013 10.2174 19.4781 10.5245 19.4781C10.833 19.4781 10.9591 19.1013 10.9591 19.1013L12.8074 14.7476H18.1905C19.7421 14.7476 21 13.4897 21 11.9381V2.80949C20.9985 1.25789 19.7406 0 18.1905 0ZM6.59652 8.06951C6.58762 9.73829 4.86247 9.78576 4.86247 9.78576C4.19496 9.78576 3.81818 9.34372 3.81818 9.34372V9.64484H2.56177V4.46196C2.55732 4.46048 2.55584 4.46048 2.56177 4.459V4.46196C2.64039 4.47383 3.81818 4.459 3.81818 4.459V6.44077C4.11337 5.93643 4.96779 5.94533 4.96779 5.94533C6.82941 6.11888 6.59652 8.06951 6.59652 8.06951ZM8.8097 6.10553V9.65374H7.58V6.14113C7.58 5.66349 6.98665 5.52998 6.98665 5.52998V4.29138C8.95062 4.37148 8.8097 6.10553 8.8097 6.10553ZM11.7245 9.78873C10.5853 9.78873 9.66264 8.93876 9.66264 7.8915C9.66264 6.84276 10.5853 5.99428 11.7245 5.99428C12.8637 5.99428 13.7864 6.84425 13.7864 7.8915C13.7864 8.93876 12.8637 9.78873 11.7245 9.78873ZM18.462 9.78873C18.462 9.78873 18.4798 11.591 16.6478 11.591H16.0901V10.4236H16.4268C16.4268 10.4236 17.1967 10.4948 17.1877 9.30812C17.1877 9.30812 17.0379 9.78873 15.958 9.78873C15.958 9.78873 14.4272 9.67896 14.4272 8.18521V7.61856C14.4272 7.61856 14.4628 6.06993 16.1435 5.94681C16.1435 5.94681 16.8065 5.87561 17.2145 6.42445V6.04471H18.462V9.78873Z" fill="#1A1A1A"/>
</svg>
