<svg width="21" height="21" viewBox="0 0 21 21" fill="none" xmlns="http://www.w3.org/2000/svg">
<path d="M10.5023 5.11472C7.52276 5.11472 5.11941 7.51807 5.11941 10.4977C5.11941 13.4772 7.52276 15.8806 10.5023 15.8806C13.4819 15.8806 15.8853 13.4772 15.8853 10.4977C15.8853 7.51807 13.4819 5.11472 10.5023 5.11472ZM10.5023 13.9973C8.57685 13.9973 7.00273 12.4278 7.00273 10.4977C7.00273 8.56748 8.57217 6.99805 10.5023 6.99805C12.4325 6.99805 14.002 8.56748 14.002 10.4977C14.002 12.4278 12.4278 13.9973 10.5023 13.9973ZM17.361 4.89453C17.361 5.59258 16.7988 6.15008 16.1055 6.15008C15.4074 6.15008 14.8499 5.5879 14.8499 4.89453C14.8499 4.20117 15.4121 3.63898 16.1055 3.63898C16.7988 3.63898 17.361 4.20117 17.361 4.89453ZM20.9262 6.16882C20.8466 4.48695 20.4624 2.99716 19.2303 1.76972C18.0028 0.542275 16.5131 0.158115 14.8312 0.073787C13.0978 -0.0245956 7.90223 -0.0245956 6.16882 0.073787C4.49163 0.15343 3.00184 0.537591 1.76972 1.76503C0.537591 2.99247 0.158115 4.48226 0.073787 6.16414C-0.0245956 7.89755 -0.0245956 13.0931 0.073787 14.8265C0.15343 16.5084 0.537591 17.9982 1.76972 19.2256C3.00184 20.453 4.48695 20.8372 6.16882 20.9215C7.90223 21.0199 13.0978 21.0199 14.8312 20.9215C16.5131 20.8419 18.0028 20.4577 19.2303 19.2256C20.4577 17.9982 20.8419 16.5084 20.9262 14.8265C21.0246 13.0931 21.0246 7.90223 20.9262 6.16882ZM18.6868 16.6864C18.3214 17.6046 17.614 18.312 16.6911 18.6822C15.309 19.2303 12.0296 19.1038 10.5023 19.1038C8.97507 19.1038 5.69097 19.2256 4.31361 18.6822C3.39537 18.3167 2.68795 17.6093 2.31785 16.6864C1.76972 15.3044 1.89621 12.0249 1.89621 10.4977C1.89621 8.97039 1.7744 5.68628 2.31785 4.30892C2.68327 3.39069 3.39069 2.68327 4.31361 2.31316C5.69565 1.76503 8.97507 1.89152 10.5023 1.89152C12.0296 1.89152 15.3137 1.76972 16.6911 2.31316C17.6093 2.67858 18.3167 3.386 18.6868 4.30892C19.235 5.69097 19.1085 8.97039 19.1085 10.4977C19.1085 12.0249 19.235 15.309 18.6868 16.6864Z" fill="#1A1A1A"/>
</svg>
