<svg width="106" height="36" viewBox="0 0 106 36" fill="none" xmlns="http://www.w3.org/2000/svg">
<g clip-path="url(#clip0_36_613)">
<path d="M5.97075 4.00825H12.1234C12.6147 4.00825 12.7835 4.65118 12.3528 4.88247L4.9298 8.90133C3.9516 9.45514 3.61616 10.6816 4.181 11.6386C4.74584 12.5977 5.99672 12.9266 6.97275 12.3727L13.0583 9.17718L20.0226 12.5913C20.9964 13.0687 22.2149 12.7653 22.7624 11.8423C23.364 10.8323 22.9636 9.55063 21.9119 9.03501L17.4754 6.86219L21.5591 4.71696C22.3902 4.27985 22.9095 3.4311 22.9095 2.50595C22.9095 1.12248 21.7647 0 20.3537 0H5.9015C4.72853 0 3.78496 0.969704 3.86071 2.13674C3.93213 3.20193 4.88219 4.00825 5.97075 4.00825Z" fill="#FF480A"/>
<path d="M24.8379 16.3746H2.15982C0.967374 16.3746 0 17.3231 0 18.4923C0 19.6614 0.967374 20.6099 2.15982 20.6099H11.3401V26.2817C11.3401 27.4509 12.3075 28.3994 13.5 28.3994C14.6924 28.3994 15.6598 27.4509 15.6598 26.2817V20.6099H24.8401C26.0325 20.6099 26.9999 19.6614 26.9999 18.4923C26.9978 17.3231 26.0304 16.3746 24.8379 16.3746Z" fill="#FF480A"/>
<path d="M40.4156 20.3999C40.3442 19.3347 39.3942 18.5284 38.3056 18.5284H30.5082V16.5996H36.6024H38.2407C39.4439 16.5996 40.42 15.6426 40.42 14.4628V12.8565V10.7028V9.11352V8.82919C40.42 7.64942 39.4439 6.69244 38.2407 6.69244H28.805C27.7164 6.69244 26.7663 7.49876 26.6949 8.56395C26.617 9.73099 27.5606 10.7007 28.7357 10.7007H36.6046V12.8565H28.5626C27.5303 12.8565 26.6928 13.6777 26.6928 14.6899V14.7662C26.6928 14.815 26.6971 14.8617 26.6993 14.9084C26.6949 14.9551 26.6928 15.0018 26.6928 15.0506V18.5305V20.4593C26.6928 21.6072 27.6428 22.5387 28.8136 22.5387H30.5103H38.3792C39.55 22.5387 40.4935 21.5669 40.4156 20.3999Z" fill="#FF480A"/>
<path d="M49.639 6.34021C48.4465 6.34021 47.4792 7.2887 47.4792 8.45786V12.1988H44.049C42.8565 12.1988 41.8892 13.1472 41.8892 14.3164C41.8892 15.4856 42.8565 16.434 44.049 16.434H47.4792V20.629C47.4792 21.7982 48.4465 22.7467 49.639 22.7467C50.8314 22.7467 51.7988 21.7982 51.7988 20.629V8.45786C51.7988 7.2887 50.8314 6.34021 49.639 6.34021Z" fill="#FF480A"/>
<path d="M43.4667 22.1228C39.1644 22.1228 35.6758 25.2293 35.6758 29.0614C35.6758 32.8936 39.1644 36 43.4667 36C47.769 36 51.2577 32.8936 51.2577 29.0614C51.2577 25.2293 47.769 22.1228 43.4667 22.1228ZM43.4667 31.9578C41.6705 31.9578 40.214 30.6613 40.214 29.0614C40.214 27.4615 41.6705 26.165 43.4667 26.165C45.263 26.165 46.7194 27.4615 46.7194 29.0614C46.7194 30.6613 45.263 31.9578 43.4667 31.9578Z" fill="#FF480A"/>
<path d="M60.1741 4.00825H66.3268C66.818 4.00825 66.9868 4.65118 66.5562 4.88247L59.1331 8.90133C58.1549 9.45514 57.8195 10.6816 58.3843 11.6386C58.9492 12.5977 60.2001 12.9266 61.1761 12.3727L67.2617 9.17718L74.2259 12.5913C75.1998 13.0687 76.4182 12.7653 76.9657 11.8423C77.5674 10.8323 77.167 9.55063 76.1152 9.03501L71.6765 6.86219L75.7603 4.71696C76.5913 4.27985 77.1107 3.4311 77.1107 2.50595C77.1129 1.12248 75.968 0 74.5549 0H60.1027C58.9297 0 57.9861 0.969704 58.0619 2.13674C58.1333 3.20193 59.0855 4.00825 60.1741 4.00825Z" fill="#FF480A"/>
<path d="M79.0411 16.3746H56.3629C55.1705 16.3746 54.2031 17.3231 54.2031 18.4923C54.2031 19.6614 55.1705 20.6099 56.3629 20.6099H65.5433V26.2817C65.5433 27.4509 66.5106 28.3994 67.7031 28.3994C68.8955 28.3994 69.8629 27.4509 69.8629 26.2817V20.6099H79.0432C80.2357 20.6099 81.203 19.6614 81.203 18.4923C81.2009 17.3231 80.2335 16.3746 79.0411 16.3746Z" fill="#FF480A"/>
<path d="M94.619 20.3999C94.5476 19.3347 93.5975 18.5284 92.5089 18.5284H84.7115V16.5996H90.8057H92.444C93.6473 16.5996 94.6233 15.6426 94.6233 14.4628V12.8565V10.7028V9.11352V8.82919C94.6233 7.64942 93.6473 6.69244 92.444 6.69244H83.0061C81.9176 6.69244 80.9675 7.49876 80.8961 8.56395C80.8182 9.73099 81.7618 10.7007 82.9369 10.7007H90.8057V12.8565H82.7638C81.7315 12.8565 80.8939 13.6777 80.8939 14.6899V14.7662C80.8939 14.815 80.8983 14.8617 80.9004 14.9084C80.8961 14.9551 80.8939 15.0018 80.8939 15.0506V18.5305V20.4593C80.8939 21.6072 81.844 22.5387 83.0148 22.5387H84.7115H92.5803C93.7533 22.5387 94.6947 21.5669 94.619 20.3999Z" fill="#FF480A"/>
<path d="M103.84 6.34021C102.648 6.34021 101.68 7.2887 101.68 8.45786V12.1988H98.2501C97.0577 12.1988 96.0903 13.1472 96.0903 14.3164C96.0903 15.4856 97.0577 16.434 98.2501 16.434H101.68V20.629C101.68 21.7982 102.648 22.7467 103.84 22.7467C105.033 22.7467 106 21.7982 106 20.629V8.45786C106 7.2887 105.033 6.34021 103.84 6.34021Z" fill="#FF480A"/>
<path d="M97.6703 22.1228C93.368 22.1228 89.8794 25.2293 89.8794 29.0614C89.8794 32.8936 93.368 36 97.6703 36C101.973 36 105.461 32.8936 105.461 29.0614C105.461 25.2293 101.973 22.1228 97.6703 22.1228ZM97.6703 31.9578C95.8741 31.9578 94.4176 30.6613 94.4176 29.0614C94.4176 27.4615 95.8741 26.165 97.6703 26.165C99.4666 26.165 100.923 27.4615 100.923 29.0614C100.923 30.6613 99.4666 31.9578 97.6703 31.9578Z" fill="#FF480A"/>
</g>
<defs>
<clipPath id="clip0_36_613">
<rect width="106" height="36" fill="white"/>
</clipPath>
</defs>
</svg>
